<svg width="96" height="36" viewBox="0 0 96 36" fill="none" xmlns="http://www.w3.org/2000/svg">
<path fill-rule="evenodd" clip-rule="evenodd" d="M79.6278 18.5C79.6278 22.9889 75.9889 26.6278 71.5 26.6278C67.0111 26.6278 63.3722 22.9889 63.3722 18.5C63.3722 14.0111 67.0111 10.3722 71.5 10.3722C75.9889 10.3722 79.6278 14.0111 79.6278 18.5ZM81 18.5C81 23.7467 76.7467 28 71.5 28C66.2533 28 62 23.7467 62 18.5C62 13.2533 66.2533 9 71.5 9C76.7467 9 81 13.2533 81 18.5ZM76.7414 14.2414C76.7414 14.7842 76.3014 15.2241 75.7587 15.2241C75.2159 15.2241 74.7759 14.7842 74.7759 14.2414C74.7759 13.6986 75.2159 13.2586 75.7587 13.2586C76.3014 13.2586 76.7414 13.6986 76.7414 14.2414ZM68.6423 19.2657C69.0652 20.8439 70.6874 21.7805 72.2656 21.3576C73.8438 20.9347 74.7804 19.3125 74.3575 17.7343C73.9347 16.1561 72.3124 15.2195 70.7342 15.6424C69.156 16.0653 68.2194 17.6875 68.6423 19.2657ZM67.3169 19.6209C67.9359 21.9311 70.3105 23.3021 72.6207 22.6831C74.931 22.064 76.302 19.6894 75.683 17.3791C75.064 15.0689 72.6893 13.6979 70.3791 14.317C68.0688 14.936 66.6978 17.3106 67.3169 19.6209Z" fill="url(#paint0_linear_2_3)"/>
<path d="M19.517 27V9.54545H31.2784V12.5881H23.2074V16.7472H30.6733V19.7898H23.2074V23.9574H31.3125V27H19.517ZM40.0589 27.2557C38.718 27.2557 37.5646 26.9716 36.5987 26.4034C35.6385 25.8295 34.8999 25.0341 34.3828 24.017C33.8714 23 33.6158 21.8295 33.6158 20.5057C33.6158 19.1648 33.8743 17.9886 34.3913 16.9773C34.9141 15.9602 35.6555 15.1676 36.6158 14.5994C37.576 14.0256 38.718 13.7386 40.0419 13.7386C41.1839 13.7386 42.1839 13.946 43.0419 14.3608C43.8999 14.7756 44.5788 15.358 45.0788 16.108C45.5788 16.858 45.8544 17.7386 45.9055 18.75H42.4794C42.3828 18.0966 42.1271 17.571 41.7124 17.1733C41.3033 16.7699 40.7663 16.5682 40.1016 16.5682C39.5391 16.5682 39.0476 16.7216 38.6271 17.0284C38.2124 17.3295 37.8885 17.7699 37.6555 18.3494C37.4226 18.929 37.3061 19.6307 37.3061 20.4545C37.3061 21.2898 37.4197 22 37.647 22.5852C37.88 23.1705 38.2067 23.6165 38.6271 23.9233C39.0476 24.2301 39.5391 24.3835 40.1016 24.3835C40.5163 24.3835 40.8885 24.2983 41.218 24.1278C41.5533 23.9574 41.8288 23.7102 42.0447 23.3864C42.2663 23.0568 42.4112 22.6619 42.4794 22.2017H45.9055C45.8487 23.2017 45.576 24.0824 45.0874 24.8438C44.6044 25.5994 43.9368 26.1903 43.0845 26.6165C42.2322 27.0426 41.2237 27.2557 40.0589 27.2557ZM51.8608 19.4318V27H48.2301V9.54545H51.7585V16.2188H51.9119C52.2074 15.446 52.6847 14.8409 53.3438 14.4034C54.0028 13.9602 54.8295 13.7386 55.8239 13.7386C56.733 13.7386 57.5256 13.9375 58.2017 14.3352C58.8835 14.7273 59.4119 15.2926 59.7869 16.0312C60.1676 16.7642 60.3551 17.642 60.3494 18.6648V27H56.7188V19.3125C56.7244 18.5057 56.5199 17.8778 56.1051 17.429C55.696 16.9801 55.1222 16.7557 54.3835 16.7557C53.8892 16.7557 53.4517 16.8608 53.071 17.071C52.696 17.2812 52.4006 17.5881 52.1847 17.9915C51.9744 18.3892 51.8665 18.8693 51.8608 19.4318Z" fill="white"/>
<defs>
<linearGradient id="paint0_linear_2_3" x1="71.5" y1="9" x2="71.5" y2="28" gradientUnits="userSpaceOnUse">
<stop stop-color="#877EFF"/>
<stop offset="0.461458" stop-color="#685DFF"/>
<stop offset="1" stop-color="#3121FF"/>
</linearGradient>
</defs>
</svg>
